# xmcd
#
# Track frame offsets:
#	150
#	17946
#	44663
#	60576
#	71064
#	81791
#	103285
#	118765
#	141992
#	162298
#	180116
#	204114
#	223808
#	232271
#
# Disc length: 3437 seconds
#
# Revision: 0
# Processed by: cddbd v1.5.1PL0 Copyright (c) Steve Scherf et al.
# Submitted via: EasyCDDAExtractor 8.0.2.1
#
DISCID=d00d6b0e
DTITLE=Makaveli (Tupac) - Makaveli 16 (The Remix Album 2)
DYEAR=1900
DGENRE=
TTITLE0=Track01 -Thug Luv
TTITLE1=Track02 -Thug Luv
TTITLE2=Track03 -Thug Luv
TTITLE3=Track04 -Thug Luv
TTITLE4=Track05 -Thug Luv
TTITLE5=Track06 -Thug Luv
TTITLE6=Track07 -Thug Luv
TTITLE7=Track08 -Thug Luv
TTITLE8=Track09 -Thug Luv
TTITLE9=Track10 -Thug Luv
TTITLE10=Track11 -Thug Luv
TTITLE11=Track12 -Thug Luv
TTITLE12=Track13 -Thug Luv
TTITLE13=Track14 -Thug Luv
EXTD=
EXTT0=
EXTT1=
EXTT2=
EXTT3=
EXTT4=
EXTT5=
EXTT6=
EXTT7=
EXTT8=
EXTT9=
EXTT10=
EXTT11=
EXTT12=
EXTT13=
PLAYORDER=
